<svg width="60" height="63" viewBox="0 0 60 63" fill="none" xmlns="http://www.w3.org/2000/svg">
<path d="M52.2143 1.78564H37.0358V48.2142H52.2143V1.78564Z" fill="#21BE1D"/>
<path d="M37.0357 16.0715H20.9642V48.2144H37.0357" fill="#21BE1D"/>
<path d="M20.9643 26.7856H5.78577V48.2142H20.9643" fill="#21BE1D"/>
<path d="M20.9643 26.7856H7.78577C6.6812 26.7856 5.78577 27.6811 5.78577 28.7856V46.2142C5.78577 47.3188 6.6812 48.2142 7.78577 48.2142H20.9643" stroke="white" stroke-linecap="round" stroke-linejoin="round"/>
<path d="M37.0357 16.0715H22.9642C21.8597 16.0715 20.9642 16.967 20.9642 18.0715V46.2144C20.9642 47.319 21.8597 48.2144 22.9642 48.2144H37.0357" stroke="white" stroke-linecap="round" stroke-linejoin="round"/>
<path d="M50.2143 1.78564H39.0358C37.9312 1.78564 37.0358 2.68108 37.0358 3.78565V46.2142C37.0358 47.3188 37.9312 48.2142 39.0358 48.2142H50.2143C51.3189 48.2142 52.2143 47.3188 52.2143 46.2142V3.78564C52.2143 2.68108 51.3189 1.78564 50.2143 1.78564Z" stroke="white" stroke-linecap="round" stroke-linejoin="round"/>
<path d="M1.33478 61V53.7273H2.21547V56.9659H6.09331V53.7273H6.97399V61H6.09331V57.7472H2.21547V61H1.33478ZM10.2286 61.1278C9.88296 61.1278 9.56928 61.0627 9.28755 60.9325C9.00583 60.8 8.78211 60.6094 8.61639 60.3608C8.45067 60.1098 8.36781 59.8068 8.36781 59.4517C8.36781 59.1392 8.42936 58.8859 8.55247 58.6918C8.67557 58.4953 8.84011 58.3414 9.04608 58.2301C9.25204 58.1188 9.47931 58.036 9.72789 57.9815C9.97884 57.9247 10.231 57.8797 10.4843 57.8466C10.8157 57.804 11.0844 57.772 11.2904 57.7507C11.4987 57.727 11.6502 57.688 11.7449 57.6335C11.842 57.5791 11.8905 57.4844 11.8905 57.3494V57.321C11.8905 56.9706 11.7947 56.6984 11.6029 56.5043C11.4135 56.3101 11.1259 56.2131 10.74 56.2131C10.3399 56.2131 10.0262 56.3007 9.79892 56.4759C9.57164 56.651 9.41184 56.8381 9.31951 57.0369L8.52406 56.7528C8.6661 56.4214 8.8555 56.1634 9.09224 55.9787C9.33135 55.7917 9.59177 55.6615 9.87349 55.5881C10.1576 55.5123 10.4369 55.4744 10.7116 55.4744C10.8867 55.4744 11.088 55.4957 11.3153 55.5384C11.5449 55.5786 11.7662 55.6626 11.9793 55.7905C12.1948 55.9183 12.3735 56.1113 12.5155 56.3693C12.6576 56.6274 12.7286 56.973 12.7286 57.4062V61H11.8905V60.2614H11.8479C11.7911 60.3797 11.6964 60.5064 11.5638 60.6413C11.4313 60.7763 11.2549 60.8911 11.0347 60.9858C10.8145 61.0805 10.5458 61.1278 10.2286 61.1278ZM10.3564 60.375C10.6879 60.375 10.9672 60.3099 11.1945 60.1797C11.4242 60.0495 11.597 59.8814 11.713 59.6754C11.8314 59.4695 11.8905 59.2528 11.8905 59.0256V58.2585C11.855 58.3011 11.7769 58.3402 11.6562 58.3757C11.5378 58.4089 11.4005 58.4384 11.2442 58.4645C11.0903 58.4882 10.94 58.5095 10.7932 58.5284C10.6488 58.545 10.5316 58.5592 10.4417 58.571C10.2239 58.5994 10.0203 58.6456 9.83088 58.7095C9.64385 58.7711 9.49234 58.8646 9.37633 58.9901C9.2627 59.1132 9.20588 59.2812 9.20588 59.4943C9.20588 59.7855 9.31359 60.0057 9.52903 60.1548C9.74683 60.3016 10.0226 60.375 10.3564 60.375ZM14.2583 61V55.5455H15.0963V57.9176H15.6503L17.6105 55.5455H18.6901L16.4884 58.1733L18.7185 61H17.6389L15.8492 58.6989H15.0963V61H14.2583ZM21.6206 61.1136C21.1282 61.1136 20.6962 60.9964 20.3245 60.7621C19.9552 60.5277 19.6663 60.1998 19.458 59.7784C19.252 59.357 19.1491 58.8646 19.1491 58.3011C19.1491 57.733 19.252 57.237 19.458 56.8132C19.6663 56.3894 19.9552 56.0604 20.3245 55.826C20.6962 55.5916 21.1282 55.4744 21.6206 55.4744C22.1131 55.4744 22.5439 55.5916 22.9133 55.826C23.2849 56.0604 23.5738 56.3894 23.7797 56.8132C23.9881 57.237 24.0922 57.733 24.0922 58.3011C24.0922 58.8646 23.9881 59.357 23.7797 59.7784C23.5738 60.1998 23.2849 60.5277 22.9133 60.7621C22.5439 60.9964 22.1131 61.1136 21.6206 61.1136ZM21.6206 60.3608C21.9947 60.3608 22.3025 60.2649 22.5439 60.0732C22.7854 59.8814 22.9642 59.6293 23.0802 59.3168C23.1962 59.0043 23.2542 58.6657 23.2542 58.3011C23.2542 57.9366 23.1962 57.5968 23.0802 57.282C22.9642 56.9671 22.7854 56.7126 22.5439 56.5185C22.3025 56.3243 21.9947 56.2273 21.6206 56.2273C21.2466 56.2273 20.9388 56.3243 20.6974 56.5185C20.4559 56.7126 20.2771 56.9671 20.1611 57.282C20.0451 57.5968 19.9871 57.9366 19.9871 58.3011C19.9871 58.6657 20.0451 59.0043 20.1611 59.3168C20.2771 59.6293 20.4559 59.8814 20.6974 60.0732C20.9388 60.2649 21.2466 60.3608 21.6206 60.3608ZM25.3715 61V55.5455H29.6613V61H28.8232V56.3267H26.2096V61H25.3715ZM30.7089 61V60.2188H30.9078C31.0711 60.2188 31.2072 60.1868 31.3161 60.1229C31.425 60.0566 31.5126 59.9418 31.5789 59.7784C31.6476 59.6127 31.6997 59.383 31.7352 59.0895C31.7731 58.7936 31.8003 58.4171 31.8169 57.9602L31.9163 55.5455H35.5526V61H34.7146V56.3267H32.7117L32.6265 58.2727C32.6076 58.7202 32.5673 59.1143 32.5058 59.4553C32.4466 59.7938 32.3554 60.0779 32.2323 60.3075C32.1116 60.5372 31.9506 60.71 31.7494 60.826C31.5481 60.942 31.296 61 30.993 61H30.7089ZM39.3772 61.1136C38.8517 61.1136 38.3983 60.9976 38.0171 60.7656C37.6383 60.5312 37.346 60.2045 37.14 59.7855C36.9364 59.3641 36.8346 58.8741 36.8346 58.3153C36.8346 57.7566 36.9364 57.2642 37.14 56.8381C37.346 56.4096 37.6324 56.0758 37.9994 55.8366C38.3687 55.5952 38.7996 55.4744 39.292 55.4744C39.5761 55.4744 39.8566 55.5218 40.1336 55.6165C40.4106 55.7112 40.6627 55.8651 40.89 56.0781C41.1173 56.2888 41.2984 56.5682 41.4333 56.9162C41.5683 57.2642 41.6357 57.6927 41.6357 58.2017V58.5568H37.4312V57.8324H40.7835C40.7835 57.5246 40.7219 57.25 40.5988 57.0085C40.4781 56.767 40.3052 56.5765 40.0803 56.4368C39.8578 56.2971 39.595 56.2273 39.292 56.2273C38.9582 56.2273 38.6694 56.3101 38.4255 56.4759C38.184 56.6392 37.9982 56.8523 37.868 57.1151C37.7378 57.3778 37.6727 57.6596 37.6727 57.9602V58.4432C37.6727 58.8551 37.7437 59.2043 37.8857 59.4908C38.0302 59.7749 38.2302 59.9915 38.4859 60.1406C38.7416 60.2874 39.0387 60.3608 39.3772 60.3608C39.5974 60.3608 39.7963 60.33 39.9738 60.2685C40.1537 60.2045 40.3088 60.1098 40.439 59.9844C40.5692 59.8565 40.6698 59.6979 40.7409 59.5085L41.5505 59.7358C41.4653 60.0104 41.3221 60.2519 41.1208 60.4602C40.9196 60.6662 40.671 60.8272 40.3751 60.9432C40.0792 61.0568 39.7465 61.1136 39.3772 61.1136ZM46.5612 57.8892V58.6705H43.5498V57.8892H46.5612ZM43.7487 55.5455V61H42.9106V55.5455H43.7487ZM47.2004 55.5455V61H46.3623V55.5455H47.2004ZM49.569 59.7642L52.1968 55.5455H53.1627V61H52.3247V56.7812L49.711 61H48.7309V55.5455H49.569V59.7642ZM57.979 61V56.3125H56.5301C56.2034 56.3125 55.9465 56.3883 55.7595 56.5398C55.5725 56.6913 55.479 56.8996 55.479 57.1648C55.479 57.4252 55.563 57.63 55.7311 57.7791C55.9015 57.9283 56.1347 58.0028 56.4307 58.0028H58.192V58.7841H56.4307C56.0613 58.7841 55.7429 58.719 55.4754 58.5888C55.2079 58.4586 55.0019 58.2727 54.8575 58.0312C54.7131 57.7874 54.6409 57.4986 54.6409 57.1648C54.6409 56.8286 54.7166 56.5398 54.8682 56.2983C55.0197 56.0568 55.2363 55.871 55.518 55.7408C55.8021 55.6106 56.1395 55.5455 56.5301 55.5455H58.7744V61H57.979ZM54.3426 61L55.8909 58.2869H56.8L55.2517 61H54.3426Z" fill="#292927"/>
</svg>
