<svg width="53" height="65" viewBox="0 0 53 65" fill="none" xmlns="http://www.w3.org/2000/svg">
<path d="M13.5134 46.5582L4.78577 39.2852V26.7852H14.3271C16.2215 26.7852 18.0383 27.5377 19.3779 28.8772L23.5358 33.0352C25.0151 34.5145 25.0151 36.913 23.5358 38.3923C23.1229 38.8051 22.6385 39.1027 22.1225 39.2852L38.1191 39.2852C41.4065 39.2852 44.0715 41.9501 44.0715 45.2375C44.0715 46.8812 42.739 48.2137 41.0953 48.2137L18.0861 48.2137C16.4151 48.2137 14.7971 47.6279 13.5134 46.5582Z" fill="#21BE1D"/>
<path d="M36.9285 30.3571C44.8183 30.3571 51.2143 23.9611 51.2143 16.0714C51.2143 8.18158 44.8183 1.78564 36.9285 1.78564C29.0388 1.78564 22.6428 8.18158 22.6428 16.0714C22.6428 23.9611 29.0388 30.3571 36.9285 30.3571Z" fill="white"/>
<path d="M36.9285 30.3571C44.8183 30.3571 51.2143 23.9611 51.2143 16.0714C51.2143 8.18158 44.8183 1.78564 36.9285 1.78564C29.0388 1.78564 22.6428 8.18158 22.6428 16.0714C22.6428 23.9611 29.0388 30.3571 36.9285 30.3571Z" stroke="#21BE1D" stroke-linecap="round" stroke-linejoin="round"/>
<path d="M36.9286 19.6429V12.5" stroke="#21BE1D" stroke-linecap="round" stroke-linejoin="round"/>
<path d="M4.78577 39.2852L13.5134 46.5582C14.7971 47.6279 16.4151 48.2137 18.0861 48.2137L41.0953 48.2137C42.739 48.2137 44.0715 46.8812 44.0715 45.2375C44.0715 41.9501 41.4065 39.2852 38.1191 39.2852H22.1225" stroke="white" stroke-linecap="round" stroke-linejoin="round"/>
<path d="M15.5001 35.7137L18.1786 38.3923C19.658 39.8716 22.0564 39.8716 23.5358 38.3923C25.0151 36.913 25.0151 34.5145 23.5358 33.0352L19.3779 28.8772C18.0383 27.5377 16.2215 26.7852 14.3271 26.7852H4.78577" stroke="white" stroke-linecap="round" stroke-linejoin="round"/>
<path d="M1.1907 63H0.267401L2.93786 55.7273H3.84695L6.5174 63H5.59411L3.42081 56.8778H3.36399L1.1907 63ZM1.53161 60.1591H5.2532V60.9403H1.53161V60.1591ZM9.75249 63.1136C9.24112 63.1136 8.80078 62.9929 8.43146 62.7514C8.06214 62.5099 7.77805 62.1773 7.57919 61.7536C7.38033 61.3298 7.28089 60.8456 7.28089 60.3011C7.28089 59.7472 7.38269 59.2583 7.58629 58.8345C7.79226 58.4084 8.07872 58.0758 8.44567 57.8366C8.81499 57.5952 9.24586 57.4744 9.73828 57.4744C10.1218 57.4744 10.4674 57.5455 10.7752 57.6875C11.083 57.8295 11.3351 58.0284 11.5316 58.2841C11.7281 58.5398 11.85 58.8381 11.8974 59.179H11.0593C10.9954 58.9304 10.8533 58.7102 10.6332 58.5185C10.4154 58.3243 10.1218 58.2273 9.75249 58.2273C9.42578 58.2273 9.13932 58.3125 8.89311 58.483C8.64927 58.651 8.45869 58.889 8.32138 59.1967C8.18643 59.5021 8.11896 59.8608 8.11896 60.2727C8.11896 60.6941 8.18525 61.0611 8.31783 61.3736C8.45277 61.6861 8.64216 61.9287 8.88601 62.1016C9.13222 62.2744 9.42105 62.3608 9.75249 62.3608C9.97029 62.3608 10.168 62.3229 10.3455 62.2472C10.5231 62.1714 10.6734 62.0625 10.7965 61.9205C10.9196 61.7784 11.0072 61.608 11.0593 61.4091H11.8974C11.85 61.7311 11.7328 62.0211 11.5458 62.2791C11.3612 62.5348 11.1161 62.7384 10.8107 62.8899C10.5077 63.0391 10.1549 63.1136 9.75249 63.1136ZM15.3384 63.1136C14.8271 63.1136 14.3867 62.9929 14.0174 62.7514C13.6481 62.5099 13.364 62.1773 13.1651 61.7536C12.9663 61.3298 12.8668 60.8456 12.8668 60.3011C12.8668 59.7472 12.9686 59.2583 13.1722 58.8345C13.3782 58.4084 13.6647 58.0758 14.0316 57.8366C14.4009 57.5952 14.8318 57.4744 15.3242 57.4744C15.7077 57.4744 16.0534 57.5455 16.3612 57.6875C16.6689 57.8295 16.921 58.0284 17.1175 58.2841C17.314 58.5398 17.436 58.8381 17.4833 59.179H16.6452C16.5813 58.9304 16.4393 58.7102 16.2191 58.5185C16.0013 58.3243 15.7077 58.2273 15.3384 58.2273C15.0117 58.2273 14.7253 58.3125 14.479 58.483C14.2352 58.651 14.0446 58.889 13.9073 59.1967C13.7724 59.5021 13.7049 59.8608 13.7049 60.2727C13.7049 60.6941 13.7712 61.0611 13.9038 61.3736C14.0387 61.6861 14.2281 61.9287 14.4719 62.1016C14.7182 62.2744 15.007 62.3608 15.3384 62.3608C15.5562 62.3608 15.7539 62.3229 15.9315 62.2472C16.109 62.1714 16.2594 62.0625 16.3825 61.9205C16.5056 61.7784 16.5932 61.608 16.6452 61.4091H17.4833C17.436 61.7311 17.3188 62.0211 17.1317 62.2791C16.9471 62.5348 16.7021 62.7384 16.3967 62.8899C16.0936 63.0391 15.7409 63.1136 15.3384 63.1136ZM19.5465 61.7642L22.1744 57.5455H23.1403V63H22.3022V58.7812L19.6886 63H18.7085V57.5455H19.5465V61.7642ZM26.8912 63.1136C26.3798 63.1136 25.9395 62.9929 25.5701 62.7514C25.2008 62.5099 24.9167 62.1773 24.7179 61.7536C24.519 61.3298 24.4196 60.8456 24.4196 60.3011C24.4196 59.7472 24.5214 59.2583 24.725 58.8345C24.9309 58.4084 25.2174 58.0758 25.5843 57.8366C25.9537 57.5952 26.3845 57.4744 26.877 57.4744C27.2605 57.4744 27.6061 57.5455 27.9139 57.6875C28.2217 57.8295 28.4738 58.0284 28.6703 58.2841C28.8668 58.5398 28.9887 58.8381 29.036 59.179H28.198C28.1341 58.9304 27.992 58.7102 27.7718 58.5185C27.554 58.3243 27.2605 58.2273 26.8912 58.2273C26.5645 58.2273 26.278 58.3125 26.0318 58.483C25.7879 58.651 25.5974 58.889 25.46 59.1967C25.3251 59.5021 25.2576 59.8608 25.2576 60.2727C25.2576 60.6941 25.3239 61.0611 25.4565 61.3736C25.5914 61.6861 25.7808 61.9287 26.0247 62.1016C26.2709 62.2744 26.5597 62.3608 26.8912 62.3608C27.109 62.3608 27.3066 62.3229 27.4842 62.2472C27.6618 62.1714 27.8121 62.0625 27.9352 61.9205C28.0583 61.7784 28.1459 61.608 28.198 61.4091H29.036C28.9887 61.7311 28.8715 62.0211 28.6845 62.2791C28.4998 62.5348 28.2548 62.7384 27.9494 62.8899C27.6464 63.0391 27.2936 63.1136 26.8912 63.1136ZM29.8315 58.3267V57.5455H34.2633V58.3267H32.4735V63H31.6355V58.3267H29.8315ZM37.4895 63.1136C36.964 63.1136 36.5106 62.9976 36.1294 62.7656C35.7507 62.5312 35.4583 62.2045 35.2523 61.7855C35.0487 61.3641 34.9469 60.8741 34.9469 60.3153C34.9469 59.7566 35.0487 59.2642 35.2523 58.8381C35.4583 58.4096 35.7447 58.0758 36.1117 57.8366C36.481 57.5952 36.9119 57.4744 37.4043 57.4744C37.6884 57.4744 37.9689 57.5218 38.2459 57.6165C38.5229 57.7112 38.775 57.8651 39.0023 58.0781C39.2296 58.2888 39.4107 58.5682 39.5456 58.9162C39.6806 59.2642 39.748 59.6927 39.748 60.2017V60.5568H35.5435V59.8324H38.8958C38.8958 59.5246 38.8342 59.25 38.7111 59.0085C38.5904 58.767 38.4176 58.5765 38.1926 58.4368C37.9701 58.2971 37.7073 58.2273 37.4043 58.2273C37.0705 58.2273 36.7817 58.3101 36.5378 58.4759C36.2963 58.6392 36.1105 58.8523 35.9803 59.1151C35.8501 59.3778 35.785 59.6596 35.785 59.9602V60.4432C35.785 60.8551 35.856 61.2043 35.998 61.4908C36.1425 61.7749 36.3425 61.9915 36.5982 62.1406C36.8539 62.2874 37.151 62.3608 37.4895 62.3608C37.7097 62.3608 37.9086 62.33 38.0861 62.2685C38.266 62.2045 38.4211 62.1098 38.5513 61.9844C38.6815 61.8565 38.7821 61.6979 38.8532 61.5085L39.6628 61.7358C39.5776 62.0104 39.4344 62.2519 39.2331 62.4602C39.0319 62.6662 38.7833 62.8272 38.4874 62.9432C38.1915 63.0568 37.8588 63.1136 37.4895 63.1136ZM44.6735 59.8892V60.6705H41.6621V59.8892H44.6735ZM41.861 57.5455V63H41.0229V57.5455H41.861ZM45.3127 57.5455V63H44.4746V57.5455H45.3127ZM46.101 58.3267V57.5455H50.5328V58.3267H48.7431V63H47.905V58.3267H46.101Z" fill="#292927"/>
</svg>
