<svg width="50" height="64" viewBox="0 0 50 64" fill="none" xmlns="http://www.w3.org/2000/svg">
<path d="M46.4285 26.7856H33.9285C32.9423 26.7856 32.1428 27.5851 32.1428 28.5714V35.7142C32.1428 36.7004 32.9423 37.4999 33.9285 37.4999H46.4285C47.4148 37.4999 48.2143 36.7004 48.2143 35.7142V28.5714C48.2143 27.5851 47.4148 26.7856 46.4285 26.7856Z" fill="white"/>
<path fill-rule="evenodd" clip-rule="evenodd" d="M1.78577 17.8571V44.6428C1.78577 45.59 2.16204 46.4984 2.83181 47.1682C3.50159 47.838 4.40999 48.2143 5.3572 48.2143H39.2858C40.233 48.2143 41.1414 47.838 41.8111 47.1682C42.4809 46.4984 42.8572 45.59 42.8572 44.6428V37.5H33.9286C32.9424 37.5 32.1429 36.7005 32.1429 35.7143V28.5714C32.1429 27.5852 32.9424 26.7857 33.9286 26.7857H42.8572V19.6428C42.8572 18.6956 42.4809 17.7872 41.8111 17.1174C41.1414 16.4477 40.233 16.0714 39.2858 16.0714H35.7143V7.14282H12.5001C6.58272 7.14282 1.78577 11.9398 1.78577 17.8571Z" fill="#21BE1D"/>
<path d="M46.4285 26.7856H33.9285C32.9423 26.7856 32.1428 27.5851 32.1428 28.5714V35.7142C32.1428 36.7004 32.9423 37.4999 33.9285 37.4999H46.4285C47.4148 37.4999 48.2143 36.7004 48.2143 35.7142V28.5714C48.2143 27.5851 47.4148 26.7856 46.4285 26.7856Z" stroke="#78CC2E" stroke-linecap="round" stroke-linejoin="round"/>
<path d="M42.8572 37.5V44.6428C42.8572 45.59 42.4809 46.4984 41.8111 47.1682C41.1414 47.838 40.233 48.2143 39.2858 48.2143H5.3572C4.40999 48.2143 3.50159 47.838 2.83181 47.1682C2.16204 46.4984 1.78577 45.59 1.78577 44.6428V17.8571C1.78577 11.9398 6.58272 7.14282 12.5001 7.14282H35.7143V16.0714" stroke="white" stroke-linecap="round" stroke-linejoin="round"/>
<path d="M42.8571 26.7858V19.643C42.8571 18.6958 42.4809 17.7874 41.8111 17.1176C41.1413 16.4478 40.2329 16.0715 39.2857 16.0715H35.7143H12.5" stroke="white" stroke-linecap="round" stroke-linejoin="round"/>
<path d="M10.5918 62L8.0918 58.6619H7.19691V62H6.31623V54.7273H7.19691V57.8807H7.58043L10.4924 54.7273H11.5435L8.60316 57.9233L11.6429 62H10.5918ZM14.4714 57.2557C14.282 57.258 14.0914 57.3066 13.8997 57.4013C13.7103 57.496 13.5517 57.6214 13.4238 57.7777C13.2984 57.9316 13.2356 58.1032 13.2356 58.2926H12.4118C12.4118 58.0559 12.4686 57.8286 12.5822 57.6108C12.6958 57.393 12.8485 57.1989 13.0403 57.0284C13.2344 56.858 13.4546 56.723 13.7008 56.6236C13.9494 56.5241 14.2063 56.4744 14.4714 56.4744C14.9686 56.4744 15.39 56.5999 15.7356 56.8509C16.0836 57.1018 16.3476 57.4332 16.5275 57.8452C16.7098 58.2571 16.801 58.7045 16.801 59.1875V59.3864C16.801 59.867 16.7098 60.3144 16.5275 60.7287C16.3476 61.1406 16.0836 61.4721 15.7356 61.723C15.39 61.974 14.9686 62.0994 14.4714 62.0994C14.0737 62.0994 13.7198 62.0118 13.4096 61.8366C13.0995 61.6591 12.8556 61.4223 12.6781 61.1264C12.5005 60.8305 12.4118 60.5014 12.4118 60.1392H13.2356C13.2356 60.3452 13.2936 60.5381 13.4096 60.718C13.528 60.8956 13.6807 61.04 13.8677 61.1513C14.0571 61.2602 14.2583 61.3158 14.4714 61.3182C14.7886 61.3158 15.0585 61.2164 15.2811 61.0199C15.5036 60.8234 15.6729 60.5772 15.7889 60.2812C15.9049 59.9853 15.9629 59.687 15.9629 59.3864V59.1875C15.9629 58.8797 15.9049 58.5791 15.7889 58.2855C15.6752 57.9896 15.5072 57.7446 15.2846 57.5504C15.0645 57.3563 14.7934 57.258 14.4714 57.2557ZM16.3038 58.8608V59.642H13.9174V58.8608H16.3038ZM18.0776 56.5455H18.9157V61.2188H20.9753V56.5455H21.8134V61.2188H23.873V56.5455H24.7111V62H18.0776V56.5455ZM30.29 54.5L30.7161 55.0114C30.5504 55.1723 30.3586 55.2848 30.1408 55.3487C29.923 55.4126 29.6768 55.4517 29.4022 55.4659C29.1275 55.4801 28.8221 55.4943 28.486 55.5085C28.1072 55.5227 27.7935 55.6151 27.5449 55.7855C27.2963 55.956 27.1046 56.2022 26.9696 56.5241C26.8347 56.8461 26.7483 57.2415 26.7104 57.7102H26.7814C26.9661 57.3693 27.2218 57.1184 27.5485 56.9574C27.8752 56.7964 28.2256 56.7159 28.5996 56.7159C29.0257 56.7159 29.4093 56.8153 29.7502 57.0142C30.0911 57.2131 30.361 57.5078 30.5598 57.8984C30.7587 58.2891 30.8581 58.7708 30.8581 59.3438C30.8581 59.9143 30.7563 60.4067 30.5527 60.821C30.3515 61.2353 30.0686 61.5549 29.704 61.7798C29.3418 62.0024 28.9168 62.1136 28.4292 62.1136C27.9415 62.1136 27.5141 61.9988 27.1472 61.7692C26.7802 61.5372 26.495 61.1939 26.2914 60.7393C26.0878 60.2824 25.986 59.7178 25.986 59.0455V58.4631C25.986 57.2486 26.1919 56.3277 26.6039 55.7003C27.0182 55.0729 27.6408 54.7486 28.4718 54.7273C28.7653 54.7178 29.0269 54.7154 29.2566 54.7202C29.4862 54.7249 29.6863 54.7143 29.8567 54.6882C30.0272 54.6622 30.1716 54.5994 30.29 54.5ZM28.4292 61.3608C28.7582 61.3608 29.0411 61.2779 29.2779 61.1122C29.517 60.9465 29.7005 60.7133 29.8283 60.4126C29.9561 60.1096 30.0201 59.7533 30.0201 59.3438C30.0201 58.946 29.955 58.6075 29.8248 58.3281C29.6969 58.0488 29.5134 57.8357 29.2743 57.6889C29.0352 57.5421 28.7488 57.4688 28.415 57.4688C28.1711 57.4688 27.9521 57.5102 27.758 57.593C27.5639 57.6759 27.3981 57.7978 27.2608 57.9588C27.1235 58.1198 27.017 58.3163 26.9412 58.5483C26.8678 58.7803 26.8288 59.0455 26.824 59.3438C26.824 59.9545 26.9673 60.4434 27.2537 60.8104C27.5402 61.1773 27.932 61.3608 28.4292 61.3608ZM34.427 62.1136C33.9015 62.1136 33.4481 61.9976 33.0669 61.7656C32.6882 61.5312 32.3958 61.2045 32.1898 60.7855C31.9862 60.3641 31.8844 59.8741 31.8844 59.3153C31.8844 58.7566 31.9862 58.2642 32.1898 57.8381C32.3958 57.4096 32.6822 57.0758 33.0492 56.8366C33.4185 56.5952 33.8494 56.4744 34.3418 56.4744C34.6259 56.4744 34.9064 56.5218 35.1834 56.6165C35.4604 56.7112 35.7125 56.8651 35.9398 57.0781C36.1671 57.2888 36.3482 57.5682 36.4831 57.9162C36.6181 58.2642 36.6855 58.6927 36.6855 59.2017V59.5568H32.481V58.8324H35.8333C35.8333 58.5246 35.7717 58.25 35.6486 58.0085C35.5279 57.767 35.3551 57.5765 35.1301 57.4368C34.9076 57.2971 34.6448 57.2273 34.3418 57.2273C34.008 57.2273 33.7192 57.3101 33.4753 57.4759C33.2338 57.6392 33.048 57.8523 32.9178 58.1151C32.7876 58.3778 32.7225 58.6596 32.7225 58.9602V59.4432C32.7225 59.8551 32.7935 60.2043 32.9355 60.4908C33.08 60.7749 33.28 60.9915 33.5357 61.1406C33.7914 61.2874 34.0885 61.3608 34.427 61.3608C34.6472 61.3608 34.8461 61.33 35.0236 61.2685C35.2035 61.2045 35.3586 61.1098 35.4888 60.9844C35.619 60.8565 35.7196 60.6979 35.7907 60.5085L36.6003 60.7358C36.5151 61.0104 36.3719 61.2519 36.1706 61.4602C35.9694 61.6662 35.7208 61.8272 35.4249 61.9432C35.129 62.0568 34.7963 62.1136 34.427 62.1136ZM37.9604 62V56.5455H38.7985V58.9176H39.3525L41.3127 56.5455H42.3922L40.1905 59.1733L42.4206 62H41.3411L39.5513 59.6989H38.7985V62H37.9604Z" fill="#292927"/>
</svg>
