<svg width="51" height="64" viewBox="0 0 51 64" fill="none" xmlns="http://www.w3.org/2000/svg">
<path d="M1.78577 24.9999C1.78577 37.8208 12.1792 48.2142 25.0001 48.2142C31.4105 48.2142 37.2141 45.6159 41.415 41.4149L25.0001 24.9999V1.78564C12.1792 1.78564 1.78577 12.179 1.78577 24.9999Z" fill="#21BE1D"/>
<path fill-rule="evenodd" clip-rule="evenodd" d="M25 1.78564V24.9999L41.415 41.4149C45.6159 37.214 48.2143 31.4104 48.2143 24.9999C48.2143 12.179 37.8209 1.78564 25 1.78564Z" fill="white"/>
<path d="M25.0001 48.2142C37.8209 48.2142 48.2143 37.8208 48.2143 24.9999C48.2143 12.179 37.8209 1.78564 25.0001 1.78564C12.1792 1.78564 1.78577 12.179 1.78577 24.9999C1.78577 37.8208 12.1792 48.2142 25.0001 48.2142Z" stroke="#21BE1D" stroke-linecap="round" stroke-linejoin="round"/>
<path d="M25 1.78564V24.9999L41.4286 41.4285" stroke="#21BE1D" stroke-linecap="round" stroke-linejoin="round"/>
<path d="M6.03107 53.7273H6.89755V59.4517H6.96857L10.9458 53.7273H11.7981V61H10.9174V55.2898H10.8464L6.88335 61H6.03107V53.7273ZM15.6626 61.1136C15.1513 61.1136 14.7109 60.9929 14.3416 60.7514C13.9723 60.5099 13.6882 60.1773 13.4893 59.7536C13.2905 59.3298 13.1911 58.8456 13.1911 58.3011C13.1911 57.7472 13.2929 57.2583 13.4964 56.8345C13.7024 56.4084 13.9889 56.0758 14.3558 55.8366C14.7251 55.5952 15.156 55.4744 15.6484 55.4744C16.032 55.4744 16.3776 55.5455 16.6854 55.6875C16.9931 55.8295 17.2453 56.0284 17.4418 56.2841C17.6383 56.5398 17.7602 56.8381 17.8075 57.179H16.9695C16.9055 56.9304 16.7635 56.7102 16.5433 56.5185C16.3255 56.3243 16.032 56.2273 15.6626 56.2273C15.3359 56.2273 15.0495 56.3125 14.8033 56.483C14.5594 56.651 14.3688 56.889 14.2315 57.1967C14.0966 57.5021 14.0291 57.8608 14.0291 58.2727C14.0291 58.6941 14.0954 59.0611 14.228 59.3736C14.3629 59.6861 14.5523 59.9287 14.7962 60.1016C15.0424 60.2744 15.3312 60.3608 15.6626 60.3608C15.8804 60.3608 16.0781 60.3229 16.2557 60.2472C16.4332 60.1714 16.5836 60.0625 16.7067 59.9205C16.8298 59.7784 16.9174 59.608 16.9695 59.4091H17.8075C17.7602 59.7311 17.643 60.0211 17.456 60.2791C17.2713 60.5348 17.0263 60.7384 16.7209 60.8899C16.4179 61.0391 16.0651 61.1136 15.6626 61.1136ZM18.603 56.3267V55.5455H23.0348V56.3267H21.245V61H20.407V56.3267H18.603ZM26.19 61.1136C25.6976 61.1136 25.2655 60.9964 24.8938 60.7621C24.5245 60.5277 24.2357 60.1998 24.0273 59.7784C23.8214 59.357 23.7184 58.8646 23.7184 58.3011C23.7184 57.733 23.8214 57.237 24.0273 56.8132C24.2357 56.3894 24.5245 56.0604 24.8938 55.826C25.2655 55.5916 25.6976 55.4744 26.19 55.4744C26.6824 55.4744 27.1133 55.5916 27.4826 55.826C27.8543 56.0604 28.1431 56.3894 28.3491 56.8132C28.5574 57.237 28.6616 57.733 28.6616 58.3011C28.6616 58.8646 28.5574 59.357 28.3491 59.7784C28.1431 60.1998 27.8543 60.5277 27.4826 60.7621C27.1133 60.9964 26.6824 61.1136 26.19 61.1136ZM26.19 60.3608C26.564 60.3608 26.8718 60.2649 27.1133 60.0732C27.3548 59.8814 27.5335 59.6293 27.6495 59.3168C27.7655 59.0043 27.8235 58.6657 27.8235 58.3011C27.8235 57.9366 27.7655 57.5968 27.6495 57.282C27.5335 56.9671 27.3548 56.7126 27.1133 56.5185C26.8718 56.3243 26.564 56.2273 26.19 56.2273C25.8159 56.2273 25.5082 56.3243 25.2667 56.5185C25.0252 56.7126 24.8465 56.9671 24.7305 57.282C24.6145 57.5968 24.5565 57.9366 24.5565 58.3011C24.5565 58.6657 24.6145 59.0043 24.7305 59.3168C24.8465 59.6293 25.0252 59.8814 25.2667 60.0732C25.5082 60.2649 25.8159 60.3608 26.19 60.3608ZM29.9409 63.0455V55.5455H30.7505V56.4119H30.85C30.9115 56.3172 30.9967 56.1965 31.1056 56.0497C31.2169 55.9006 31.3755 55.768 31.5815 55.652C31.7898 55.5336 32.0716 55.4744 32.4267 55.4744C32.8859 55.4744 33.2908 55.5893 33.6412 55.8189C33.9915 56.0485 34.265 56.3741 34.4615 56.7955C34.658 57.2169 34.7562 57.714 34.7562 58.2869C34.7562 58.8646 34.658 59.3653 34.4615 59.7891C34.265 60.2105 33.9927 60.5372 33.6447 60.7692C33.2967 60.9988 32.8954 61.1136 32.4409 61.1136C32.0905 61.1136 31.81 61.0556 31.5993 60.9396C31.3886 60.8213 31.2264 60.6875 31.1127 60.5384C30.9991 60.3868 30.9115 60.2614 30.85 60.1619H30.7789V63.0455H29.9409ZM30.7647 58.2727C30.7647 58.6847 30.8251 59.0481 30.9458 59.3629C31.0666 59.6754 31.243 59.9205 31.475 60.098C31.707 60.2732 31.9911 60.3608 32.3272 60.3608C32.6776 60.3608 32.97 60.2685 33.2044 60.0838C33.4411 59.8968 33.6187 59.6458 33.737 59.331C33.8578 59.0137 33.9181 58.661 33.9181 58.2727C33.9181 57.8892 33.859 57.5436 33.7406 57.2358C33.6246 56.9257 33.4482 56.6806 33.2115 56.5007C32.9771 56.3184 32.6824 56.2273 32.3272 56.2273C31.9863 56.2273 31.6999 56.3137 31.4679 56.4865C31.2359 56.657 31.0607 56.8961 30.9423 57.2038C30.8239 57.5092 30.7647 57.8655 30.7647 58.2727ZM36.8727 59.7642L39.5005 55.5455H40.4664V61H39.6284V56.7812L37.0147 61H36.0346V55.5455H36.8727V59.7642ZM45.2827 61V56.3125H43.8338C43.5071 56.3125 43.2502 56.3883 43.0632 56.5398C42.8762 56.6913 42.7827 56.8996 42.7827 57.1648C42.7827 57.4252 42.8667 57.63 43.0348 57.7791C43.2053 57.9283 43.4384 58.0028 43.7344 58.0028H45.4957V58.7841H43.7344C43.3651 58.7841 43.0466 58.719 42.7791 58.5888C42.5116 58.4586 42.3056 58.2727 42.1612 58.0312C42.0168 57.7874 41.9446 57.4986 41.9446 57.1648C41.9446 56.8286 42.0204 56.5398 42.1719 56.2983C42.3234 56.0568 42.54 55.871 42.8217 55.7408C43.1058 55.6106 43.4432 55.5455 43.8338 55.5455H46.0781V61H45.2827ZM41.6463 61L43.1946 58.2869H44.1037L42.5554 61H41.6463Z" fill="#292927"/>
</svg>
