<svg width="50" height="66" viewBox="0 0 50 66" fill="none" xmlns="http://www.w3.org/2000/svg">
<path d="M48.2144 24.7856C48.2178 24.2899 48.1179 23.7989 47.9211 23.3439C47.7244 22.8889 47.435 22.4799 47.0716 22.1428L25.0001 1.78564L2.92871 22.1428C2.56522 22.4799 2.27589 22.8889 2.07913 23.3439C1.88237 23.7989 1.78249 24.2899 1.78585 24.7856V44.6428C1.78585 45.59 2.16212 46.4984 2.8319 47.1682C3.50167 47.8379 4.41008 48.2142 5.35728 48.2142H44.643C45.5902 48.2142 46.4986 47.8379 47.1684 47.1682C47.8381 46.4984 48.2144 45.59 48.2144 44.6428V24.7856Z" fill="#21BE1D"/>
<rect x="15.2588" y="22.6658" width="19.4818" height="15.9125" rx="1" fill="white"/>
<rect x="15.2579" y="22.6658" width="19.4818" height="15.9125" rx="2" stroke="#78CC2E" stroke-linecap="round" stroke-linejoin="round"/>
<path d="M48.2144 24.7856C48.2178 24.2899 48.1179 23.7989 47.9211 23.3439C47.7244 22.8889 47.435 22.4799 47.0716 22.1428L25.0001 1.78564L2.92871 22.1428C2.56522 22.4799 2.27589 22.8889 2.07913 23.3439C1.88237 23.7989 1.78249 24.2899 1.78585 24.7856V44.6428C1.78585 45.59 2.16212 46.4984 2.8319 47.1682C3.50167 47.8379 4.41008 48.2142 5.35728 48.2142H44.643C45.5902 48.2142 46.4986 47.8379 47.1684 47.1682C47.8381 46.4984 48.2144 45.59 48.2144 44.6428V24.7856Z" stroke="#78CC2E" stroke-linecap="round" stroke-linejoin="round"/>
<path d="M8.67614 56.7273V57.5085H5.16761V64H4.28693V56.7273H8.67614ZM9.44229 64V63.2188H9.64116C9.80451 63.2188 9.94064 63.1868 10.0495 63.1229C10.1584 63.0566 10.246 62.9418 10.3123 62.7784C10.381 62.6127 10.4331 62.383 10.4686 62.0895C10.5065 61.7936 10.5337 61.4171 10.5502 60.9602L10.6497 58.5455H14.286V64H13.448V59.3267H11.4451L11.3599 61.2727C11.341 61.7202 11.3007 62.1143 11.2392 62.4553C11.18 62.7938 11.0888 63.0779 10.9657 63.3075C10.845 63.5372 10.684 63.71 10.4828 63.826C10.2815 63.942 10.0294 64 9.72638 64H9.44229ZM17.4288 64.1278C17.0832 64.1278 16.7695 64.0627 16.4877 63.9325C16.206 63.8 15.9823 63.6094 15.8166 63.3608C15.6509 63.1098 15.568 62.8068 15.568 62.4517C15.568 62.1392 15.6296 61.8859 15.7527 61.6918C15.8758 61.4953 16.0403 61.3414 16.2463 61.2301C16.4522 61.1188 16.6795 61.036 16.9281 60.9815C17.179 60.9247 17.4312 60.8797 17.6845 60.8466C18.0159 60.804 18.2846 60.772 18.4906 60.7507C18.6989 60.727 18.8504 60.688 18.9451 60.6335C19.0422 60.5791 19.0907 60.4844 19.0907 60.3494V60.321C19.0907 59.9706 18.9949 59.6984 18.8031 59.5043C18.6137 59.3101 18.3261 59.2131 17.9402 59.2131C17.5401 59.2131 17.2264 59.3007 16.9991 59.4759C16.7718 59.651 16.612 59.8381 16.5197 60.0369L15.7243 59.7528C15.8663 59.4214 16.0557 59.1634 16.2924 58.9787C16.5315 58.7917 16.792 58.6615 17.0737 58.5881C17.3578 58.5123 17.6371 58.4744 17.9118 58.4744C18.0869 58.4744 18.2882 58.4957 18.5154 58.5384C18.7451 58.5786 18.9664 58.6626 19.1795 58.7905C19.3949 58.9183 19.5737 59.1113 19.7157 59.3693C19.8578 59.6274 19.9288 59.973 19.9288 60.4062V64H19.0907V63.2614H19.0481C18.9913 63.3797 18.8966 63.5064 18.764 63.6413C18.6315 63.7763 18.4551 63.8911 18.2349 63.9858C18.0147 64.0805 17.746 64.1278 17.4288 64.1278ZM17.5566 63.375C17.8881 63.375 18.1674 63.3099 18.3947 63.1797C18.6243 63.0495 18.7972 62.8814 18.9132 62.6754C19.0315 62.4695 19.0907 62.2528 19.0907 62.0256V61.2585C19.0552 61.3011 18.9771 61.3402 18.8564 61.3757C18.738 61.4089 18.6007 61.4384 18.4444 61.4645C18.2905 61.4882 18.1402 61.5095 17.9934 61.5284C17.849 61.545 17.7318 61.5592 17.6419 61.571C17.4241 61.5994 17.2205 61.6456 17.0311 61.7095C16.844 61.7711 16.6925 61.8646 16.5765 61.9901C16.4629 62.1132 16.4061 62.2812 16.4061 62.4943C16.4061 62.7855 16.5138 63.0057 16.7292 63.1548C16.947 63.3016 17.2228 63.375 17.5566 63.375ZM21.4585 64V58.5455H23.6886C24.2757 58.5455 24.7421 58.678 25.0877 58.9432C25.4334 59.2083 25.6062 59.5587 25.6062 59.9943C25.6062 60.3258 25.5079 60.5826 25.3114 60.7649C25.1149 60.9448 24.8628 61.0668 24.555 61.1307C24.7563 61.1591 24.9516 61.2301 25.141 61.3438C25.3327 61.4574 25.4914 61.6136 25.6168 61.8125C25.7423 62.009 25.805 62.2505 25.805 62.5369C25.805 62.8163 25.734 63.0661 25.592 63.2862C25.4499 63.5064 25.2463 63.6804 24.9812 63.8082C24.716 63.9361 24.3988 64 24.0295 64H21.4585ZM22.2539 63.233H24.0295C24.3183 63.233 24.5444 63.1643 24.7077 63.027C24.8711 62.8897 24.9528 62.7027 24.9528 62.4659C24.9528 62.1842 24.8711 61.9628 24.7077 61.8018C24.5444 61.6385 24.3183 61.5568 24.0295 61.5568H22.2539V63.233ZM22.2539 60.8324H23.6886C23.9135 60.8324 24.1064 60.8016 24.2674 60.7401C24.4284 60.6761 24.5515 60.5862 24.6367 60.4702C24.7243 60.3518 24.7681 60.2121 24.7681 60.0511C24.7681 59.8215 24.6722 59.6416 24.4805 59.5114C24.2887 59.3788 24.0247 59.3125 23.6886 59.3125H22.2539V60.8324ZM30.7243 60.8892V61.6705H27.7129V60.8892H30.7243ZM27.9118 58.5455V64H27.0737V58.5455H27.9118ZM31.3635 58.5455V64H30.5254V58.5455H31.3635ZM33.6184 60.5199H35.1809C35.8201 60.5199 36.309 60.6821 36.6475 61.0064C36.9861 61.3307 37.1554 61.7415 37.1554 62.2386C37.1554 62.5653 37.0796 62.8625 36.9281 63.13C36.7766 63.3951 36.554 63.607 36.2605 63.7656C35.9669 63.9219 35.6071 64 35.1809 64H32.894V58.5455H33.7321V63.2188H35.1809C35.5124 63.2188 35.7846 63.1312 35.9977 62.956C36.2108 62.7808 36.3173 62.5559 36.3173 62.2812C36.3173 61.9924 36.2108 61.7569 35.9977 61.5746C35.7846 61.3923 35.5124 61.3011 35.1809 61.3011H33.6184V60.5199ZM38.0218 64V58.5455H38.8599V64H38.0218ZM41.2321 62.7642L43.8599 58.5455H44.8258V64H43.9877V59.7812L41.3741 64H40.394V58.5455H41.2321V62.7642ZM43.3059 56.7273H44.0872C44.0872 57.1108 43.9546 57.4245 43.6895 57.6683C43.4243 57.9122 43.0645 58.0341 42.6099 58.0341C42.1625 58.0341 41.8062 57.9122 41.541 57.6683C41.2782 57.4245 41.1468 57.1108 41.1468 56.7273H41.9281C41.9281 56.9119 41.979 57.0741 42.0808 57.2138C42.185 57.3535 42.3613 57.4233 42.6099 57.4233C42.8585 57.4233 43.036 57.3535 43.1426 57.2138C43.2515 57.0741 43.3059 56.9119 43.3059 56.7273Z" fill="#292927"/>
</svg>
