<svg width="50" height="50" viewBox="0 0 50 50" fill="none" xmlns="http://www.w3.org/2000/svg">
<path d="M33.9286 23.2142C33.9286 25.5822 32.9879 27.8532 31.3134 29.5277C29.639 31.2021 27.368 32.1428 25 32.1428C22.632 32.1428 20.361 31.2021 18.6865 29.5277C17.0121 27.8532 16.0714 25.5822 16.0714 23.2142V10.7142C16.0714 8.34621 17.0121 6.07519 18.6865 4.40076C20.361 2.72633 22.632 1.78564 25 1.78564C27.368 1.78564 29.639 2.72633 31.3134 4.40076C32.9879 6.07519 33.9286 8.34621 33.9286 10.7142V23.2142Z" fill="white" stroke="#21BE1D" stroke-linecap="round" stroke-linejoin="round"/>
<path d="M33.9286 23.2142C33.9286 25.5822 32.9879 27.8532 31.3134 29.5277C29.639 31.2021 27.368 32.1428 25 32.1428C22.632 32.1428 20.361 31.2021 18.6865 29.5277C17.0121 27.8532 16.0714 25.5822 16.0714 23.2142V10.7142C16.0714 8.34621 17.0121 6.07519 18.6865 4.40076C20.361 2.72633 22.632 1.78564 25 1.78564C27.368 1.78564 29.639 2.72633 31.3134 4.40076C32.9879 6.07519 33.9286 8.34621 33.9286 10.7142V23.2142Z" stroke="#21BE1D" stroke-linecap="round" stroke-linejoin="round"/>
<path d="M42.8571 25C42.8619 27.1119 42.4494 29.2038 41.6434 31.1558C40.8374 33.1078 39.6537 34.8814 38.1604 36.3747C36.6671 37.868 34.8936 39.0517 32.9416 39.8577C30.9896 40.6637 28.8976 41.0761 26.7857 41.0714H23.2143C21.1024 41.0761 19.0105 40.6637 17.0585 39.8577C15.1065 39.0517 13.3329 37.868 11.8396 36.3747C10.3463 34.8814 9.16263 33.1078 8.35664 31.1558C7.55064 29.2038 7.13815 27.1119 7.14286 25" stroke="#21BE1D" stroke-linecap="round" stroke-linejoin="round"/>
<path d="M25 41.0715V48.2144" stroke="#21BE1D" stroke-linecap="round" stroke-linejoin="round"/>
</svg>
